# xmcd
#
# Track frame offsets:
#	150
#	15406
#	28891
#	51508
#	75774
#	92176
#	110286
#	128791
#	156890
#	179715
#	199886
#
# Disc length: 2986 seconds
#
# Revision: 2
# Processed by: cddbd v1.5PL3 Copyright (c) Steve Scherf et al.
# Submitted via: EasyCDDAExtractor 7.0.5.4
#
DISCID=8c0ba80b
DTITLE=BLUESplus - Mood Changes
DYEAR=2002
DGENRE=Blues
TTITLE0=I'm Your Witchdoctor
TTITLE1=In The Dark
TTITLE2=Mood Changes
TTITLE3=Church Street Blues
TTITLE4=Clyde
TTITLE5=New York State Of Mind
TTITLE6=Who Will Save Your Soul?
TTITLE7=Hummingbird
TTITLE8=You'll Pay The Price
TTITLE9=The Chicken and the Hawk
TTITLE10=From A Parisian Cafe (Tom Waits for Norman)
EXTD=
EXTT0=
EXTT1=
EXTT2=
EXTT3=
EXTT4=
EXTT5=
EXTT6=
EXTT7=
EXTT8=
EXTT9=
EXTT10=
PLAYORDER=
